<svg xmlns="http://www.w3.org/2000/svg" viewBox="0 0 840.03 838.96"><defs><style>.cls-1{fill:#4dd0e1;}.cls-2{fill:#f06292;}.cls-3{fill:#ffb74d;}.cls-4{fill:#8cc63f;}.cls-5{fill:#ba68c8;}.cls-6{fill:#81c784;}.cls-7{fill:#ff5a4d;}</style></defs><g id="Capa_2" data-name="Capa 2"><g id="Capa_1-2" data-name="Capa 1"><path class="cls-1" d="M222.65,194.61a20.34,20.34,0,0,1-9.88-37.16,344.86,344.86,0,0,1,394.74,7.06,20.34,20.34,0,0,1-23.91,32.9,304.2,304.2,0,0,0-348.13-6.21A20.25,20.25,0,0,1,222.65,194.61Z"/><path class="cls-2" d="M166.53,655.43a20.29,20.29,0,0,1-16.22-8A341.25,341.25,0,0,1,88.68,514.62a20.34,20.34,0,1,1,39.7-8.86,300.6,300.6,0,0,0,54.34,117,20.33,20.33,0,0,1-16.19,32.62Z"/><path class="cls-3" d="M425.1,771.25a344.32,344.32,0,0,1-176.72-48.69,20.33,20.33,0,0,1,20.88-34.9,304.28,304.28,0,0,0,325.8-9,20.34,20.34,0,0,1,22.77,33.7A343,343,0,0,1,425.1,771.25Z"/><path class="cls-4" d="M722.8,588.54a20.34,20.34,0,0,1-18.65-28.43,301.7,301.7,0,0,0,24.15-98.53,20.34,20.34,0,0,1,40.57,2.94,342.84,342.84,0,0,1-27.4,111.77A20.34,20.34,0,0,1,722.8,588.54Z"/><path class="cls-2" d="M811.06,539.78a19.26,19.26,0,0,1-4.24-.47,19.06,19.06,0,0,1-14.37-22.81,384.48,384.48,0,0,0,9.45-84.85,379,379,0,0,0-33-155.58,19.06,19.06,0,0,1,34.81-15.55A416.92,416.92,0,0,1,840,431.65a422.44,422.44,0,0,1-10.4,93.28A19.07,19.07,0,0,1,811.06,539.78Z"/><path class="cls-2" d="M696.19,184.15a19,19,0,0,1-12.46-5.92A380,380,0,0,0,566.51,93.81a19.07,19.07,0,0,1,16-34.61,418.1,418.1,0,0,1,128.92,92.85,19.06,19.06,0,0,1-15.26,32.1Z"/><path class="cls-3" d="M381.76,59.19a19.07,19.07,0,0,1,.36-38,426.79,426.79,0,0,1,54.81.49,19.07,19.07,0,1,1-2.79,38,388.32,388.32,0,0,0-49.89-.45A18.78,18.78,0,0,1,381.76,59.19Z"/><path class="cls-5" d="M97.83,201.49a19.07,19.07,0,0,1-13.17-31.3A424.56,424.56,0,0,1,229.35,59.45,19.06,19.06,0,1,1,245.43,94,386.06,386.06,0,0,0,113.82,194.75,19,19,0,0,1,97.83,201.49Z"/><path class="cls-3" d="M44.91,592.65a19.07,19.07,0,0,1-17.83-12.32A418.33,418.33,0,0,1,0,431.65a19.07,19.07,0,0,1,38.13,0A380.36,380.36,0,0,0,62.74,566.83a19.08,19.08,0,0,1-17.83,25.82Z"/><path class="cls-4" d="M289.62,817.28a19.16,19.16,0,0,1-6.2-1A417.29,417.29,0,0,1,138.5,730.65a19.06,19.06,0,1,1,25.56-28.29,379.46,379.46,0,0,0,131.75,77.82,19.07,19.07,0,0,1-6.19,37.1Z"/><path class="cls-1" d="M435.27,839a19.07,19.07,0,1,1,0-38.13,386.8,386.8,0,0,0,50.66-3.33,19.07,19.07,0,0,1,5,37.8A425,425,0,0,1,435.27,839Z"/><path class="cls-2" d="M583,804.44A19.06,19.06,0,0,1,575.26,768,385.36,385.36,0,0,0,707.87,669.9,19.07,19.07,0,1,1,736.6,695,423.85,423.85,0,0,1,590.77,802.79,19,19,0,0,1,583,804.44Z"/><circle class="cls-4" cx="298.16" cy="25.63" r="25.63" transform="translate(184.13 302.31) rotate(-72.52)"/><path class="cls-3" d="M506.47,20.55A14.2,14.2,0,1,1,493.35,5.34,14.2,14.2,0,0,1,506.47,20.55Z"/><path class="cls-1" d="M782.67,169.14a16.72,16.72,0,1,1-15.45-17.9A16.71,16.71,0,0,1,782.67,169.14Z"/><path class="cls-2" d="M35.94,355.84a16.72,16.72,0,1,1-16.72-16.72A16.72,16.72,0,0,1,35.94,355.84Z"/><path class="cls-2" d="M360.5,818a14.2,14.2,0,1,1-14.2-14.2A14.2,14.2,0,0,1,360.5,818Z"/><path class="cls-3" d="M728.23,627.38a14.2,14.2,0,1,1-14.2-14.2A14.2,14.2,0,0,1,728.23,627.38Z"/><path class="cls-1" d="M104.62,692.62a14.2,14.2,0,1,1-14.2-14.2A14.2,14.2,0,0,1,104.62,692.62Z"/><circle class="cls-1" cx="778.94" cy="621.96" r="21.5"/><circle class="cls-2" cx="26.54" cy="685.62" r="10.18"/><path class="cls-6" d="M748.93,111.42a10.18,10.18,0,1,1-9.41-10.9A10.18,10.18,0,0,1,748.93,111.42Z"/><path class="cls-2" d="M523.39,59.17a10.18,10.18,0,1,1-9.4-10.9A10.18,10.18,0,0,1,523.39,59.17Z"/><path class="cls-2" d="M797.07,561.29a10.18,10.18,0,1,1-10.18-10.18A10.18,10.18,0,0,1,797.07,561.29Z"/><circle class="cls-5" cx="79.15" cy="635.1" r="24.59"/><path class="cls-5" d="M555.12,594.57a19.07,19.07,0,0,1,12.08,36.08,423.82,423.82,0,0,1-52,17.43,19.06,19.06,0,1,1-9.77-36.85,389,389,0,0,0,47.3-15.86A18.74,18.74,0,0,1,555.12,594.57Z"/><path class="cls-1" d="M237.08,594.21a20.34,20.34,0,0,1,31.29-13.31,301.71,301.71,0,0,0,92.68,41.27,20.34,20.34,0,1,1-10.1,39.4,342.44,342.44,0,0,1-105.13-46.82A20.35,20.35,0,0,1,237.08,594.21Z"/><path class="cls-1" d="M42.16,230.68a19.06,19.06,0,1,1,33.37,18.44,387.88,387.88,0,0,0-21.59,45.95,19.06,19.06,0,0,1-35.5-13.9A426.15,426.15,0,0,1,42.16,230.68Z"/><path class="cls-1" d="M444,647.46a14.2,14.2,0,1,1-16-12.08A14.19,14.19,0,0,1,444,647.46Z"/><path class="cls-7" d="M148.16,372v50.15q0,6.66-.39,13a31.58,31.58,0,0,1-2.63,11.3,18.07,18.07,0,0,1-7,8q-4.8,3-13.78,3-8.67,0-13.38-3a17.73,17.73,0,0,1-6.89-8,32.9,32.9,0,0,1-2.56-11.3q-.39-6.35-.38-13V276q0-6.65.38-13a33,33,0,0,1,2.56-11.3,17.71,17.71,0,0,1,6.89-8q4.71-3,13.38-3H175.4q19.2.93,34.37,8.05a71.55,71.55,0,0,1,12.61,7.74,53.61,53.61,0,0,1,11,11.37,56.08,56.08,0,0,1,7.82,15.95,70,70,0,0,1,2.94,21.28q0,16.56-5.18,29a54.89,54.89,0,0,1-15,20.9,64.81,64.81,0,0,1-24,12.69A110.89,110.89,0,0,1,168,372Zm21.05-36.84a34.06,34.06,0,0,0,13.93-3.71,26.93,26.93,0,0,0,5.11-3.56,24.61,24.61,0,0,0,4.49-5.34,27,27,0,0,0,3.17-7.51,38.12,38.12,0,0,0,1.17-9.91,32.52,32.52,0,0,0-1.17-9.21,26,26,0,0,0-3-6.81,23.34,23.34,0,0,0-4.18-4.88,29.46,29.46,0,0,0-4.8-3.4,35.92,35.92,0,0,0-13.16-3.56h-22.6v57.89Z"/><path class="cls-7" d="M190.65,415.13q0-11.37,3.32-19.37a42,42,0,0,1,8.47-13.33,40.22,40.22,0,0,1,11.37-8.35,65.49,65.49,0,0,1,12.09-4.56,59.8,59.8,0,0,1,10.6-1.9c3.16-.24,5.49-.35,7-.35h4c1.5,0,3.83.11,7,.35a58.61,58.61,0,0,1,10.54,1.9,66.08,66.08,0,0,1,12,4.56,38.5,38.5,0,0,1,11.25,8.35,42.42,42.42,0,0,1,8.3,13.33q3.25,8,3.26,19.37V486q0,11.73-3.26,19.9a43.53,43.53,0,0,1-8.3,13.63,39.38,39.38,0,0,1-11.25,8.59,62.74,62.74,0,0,1-12,4.68,57.65,57.65,0,0,1-10.54,1.89q-4.74.36-7,.36h-4q-2.25,0-7-.36a58.82,58.82,0,0,1-10.6-1.89,62.21,62.21,0,0,1-12.09-4.68,41.15,41.15,0,0,1-11.37-8.59A43.11,43.11,0,0,1,194,505.88q-3.32-8.17-3.32-19.9ZM230,490.48a18.15,18.15,0,0,0,2,7.7,15.88,15.88,0,0,0,4.68,5.33q3.13,2.37,8.94,2.37t8.77-2.37a16.23,16.23,0,0,0,4.62-5.33,20.83,20.83,0,0,0,2-7.7V413.23a21.75,21.75,0,0,0-2-7.7,17.46,17.46,0,0,0-4.62-5.27q-3.07-2.43-8.77-2.43t-8.94,2.43a17,17,0,0,0-4.68,5.27,18.84,18.84,0,0,0-2,7.7Z"/><path class="cls-7" d="M348,372.8a17.74,17.74,0,0,0,3.24,10,39.66,39.66,0,0,0,8.22,8.42,102.45,102.45,0,0,0,11.6,7.75q6.49,3.78,13.32,8T397.71,416a69.91,69.91,0,0,1,11.67,11.13,53.43,53.43,0,0,1,8.35,14.05A50.3,50.3,0,0,1,421.17,459V460a60.91,60.91,0,0,1-2.65,19,47.9,47.9,0,0,1-7,13.91,39.73,39.73,0,0,1-10.21,9.61,57.19,57.19,0,0,1-12.26,6,66.73,66.73,0,0,1-13,3.18,105.9,105.9,0,0,1-12.39,1.07h-1.33a77.47,77.47,0,0,1-19.75-2.26,53.81,53.81,0,0,1-14.58-6,41.07,41.07,0,0,1-10.14-8.68,46.45,46.45,0,0,1-6.43-10.14,49.36,49.36,0,0,1-4.5-20.08,19.18,19.18,0,0,1,1.59-8.09,16.15,16.15,0,0,1,4.17-5.63,17.14,17.14,0,0,1,6-3.25,23.72,23.72,0,0,1,7.09-1.06,25.56,25.56,0,0,1,7.09,1.06,21.12,21.12,0,0,1,6.63,3.25,17.48,17.48,0,0,1,4.9,5.57,16.72,16.72,0,0,1,2.06,7.88q.25,9.94,4.5,13.59t12.2,3.64a33.47,33.47,0,0,0,7.35-1,13.11,13.11,0,0,0,5.77-3.05,15,15,0,0,0,3.78-5.83,26,26,0,0,0,1.39-9.21A25,25,0,0,0,378.29,451a43.31,43.31,0,0,0-8.15-10.34,85.18,85.18,0,0,0-11.53-9.08q-6.5-4.31-13.25-8.62t-13.19-9a80.91,80.91,0,0,1-11.6-10.27,46.49,46.49,0,0,1-8.28-12.33A37.69,37.69,0,0,1,309,376v-2.12q.13-14.19,3.78-23.6a34.25,34.25,0,0,1,10.73-15A43,43,0,0,1,341,327.4a108.78,108.78,0,0,1,23.73-2.32h3.44q12.19,0,20.68,2.65A48.32,48.32,0,0,1,403,334.49a34,34,0,0,1,8.88,9.28,44.44,44.44,0,0,1,6.82,19.62q.41,4.37.4,7a16.85,16.85,0,0,1-1.52,7.22,16.52,16.52,0,0,1-4.11,5.5,18.73,18.73,0,0,1-6.1,3.52,22.4,22.4,0,0,1-7.62,1.26,17.15,17.15,0,0,1-6.36-1.26,22.41,22.41,0,0,1-5.7-3.25,17.58,17.58,0,0,1-4.11-4.57,9.92,9.92,0,0,1-1.59-5.24q0-10.86-3.91-15.11t-11.47-4.24a58.36,58.36,0,0,0-6.95.4,12.91,12.91,0,0,0-6,2.18,12.07,12.07,0,0,0-4.11,5.51Q348,366,348,372.8Z"/><path class="cls-7" d="M507.32,278.48q6.19,0,12.46.46a35.89,35.89,0,0,1,11.38,2.63,19.36,19.36,0,0,1,8.28,6.58q3.16,4.41,3.17,12.31,0,7.74-3.17,12.15a19.27,19.27,0,0,1-8.28,6.57,37,37,0,0,1-11.38,2.71q-6.27.56-12.46.55H491.53V459.89q0,6.66-.39,13a33.19,33.19,0,0,1-2.55,11.3,17.65,17.65,0,0,1-7,8q-4.8,3-13.62,3t-13.62-3a17.57,17.57,0,0,1-7-8,33,33,0,0,1-2.56-11.3q-.39-6.34-.39-13V322.44H428.69q-6.19,0-12.46-.55a37,37,0,0,1-11.38-2.71,19.15,19.15,0,0,1-8.28-6.57q-3.18-4.41-3.18-12.15,0-7.9,3.18-12.31a19.25,19.25,0,0,1,8.28-6.58,35.82,35.82,0,0,1,11.38-2.63q6.25-.46,12.46-.46Z"/><path class="cls-7" d="M530,363.34q0-5.74.53-11.22a29.39,29.39,0,0,1,2.61-9.82,17.18,17.18,0,0,1,6.08-7q4-2.67,11.09-2.67,7.6,0,11.89,2.67a16.09,16.09,0,0,1,6.27,7,29.35,29.35,0,0,1,2.48,9.82q.46,5.47.46,11.22v117h26.19a107.53,107.53,0,0,1,10.82.54,28.67,28.67,0,0,1,9.55,2.53,16.36,16.36,0,0,1,6.75,5.88c1.69,2.59,2.54,6.1,2.54,10.56s-.85,8.12-2.54,10.75a16.18,16.18,0,0,1-6.75,6,28.67,28.67,0,0,1-9.55,2.53,107.53,107.53,0,0,1-10.82.54H559.67q-7.08,0-12.56-.54a25,25,0,0,1-9.28-2.53,13.45,13.45,0,0,1-5.82-6q-2-3.94-2-10.75Z"/><path class="cls-7" d="M688.8,442.41a127.74,127.74,0,0,1-.62,12.77,34.09,34.09,0,0,1-2.94,11.22,19,19,0,0,1-7,8q-4.65,3-12.7,3-8.21,0-12.84-3a19.45,19.45,0,0,1-7-8,32.94,32.94,0,0,1-3-11.22,127.74,127.74,0,0,1-.62-12.77V388.54l-46.13-82.35q-3.72-6.49-7.12-12.77a26.19,26.19,0,0,1-3.41-12.61,17.08,17.08,0,0,1,2.4-8.44q2.4-4.26,8.75-8a27.81,27.81,0,0,1,13-3.72,17.23,17.23,0,0,1,8.44,2.09,26.71,26.71,0,0,1,6.88,5.5,44.46,44.46,0,0,1,5.58,7.66q2.47,4.26,4.49,8.59l28.17,59.13h4.95l28.17-59.13q2-4.33,4.49-8.59a45,45,0,0,1,5.57-7.66,26.76,26.76,0,0,1,6.89-5.5,17.23,17.23,0,0,1,8.44-2.09,21.86,21.86,0,0,1,6.34.93,38.1,38.1,0,0,1,6.66,2.79q6,3.71,8.59,8a16.35,16.35,0,0,1,2.56,8.44q0,2.78-2.48,9.05a147.28,147.28,0,0,1-8,16.33L688.8,388.54Z"/></g></g></svg>