<svg version="1.2" xmlns="http://www.w3.org/2000/svg" viewBox="0 0 792 612" width="792" height="612">
	<style>
		.s0 { fill: #00b4b9 } 
		.s1 { fill: #fefefe } 
	</style>
	<g id="Capa 1">
		<g id="&lt;Group&gt;">
			<g id="&lt;Group&gt;">
				<g id="&lt;Group&gt;">
				</g>
				<g id="&lt;Group&gt;">
				</g>
			</g>
		</g>
		<g id="&lt;Group&gt;">
			<g id="&lt;Group&gt;">
			</g>
			<g id="&lt;Group&gt;">
				<path id="&lt;Path&gt;" class="s0" d="m537.01 579.62h-281.41c-72.93 0-132.6-59.68-132.6-132.61v-281.41c0-72.93 59.67-132.6 132.6-132.6h281.41c72.93 0 132.61 59.67 132.61 132.6v281.41c0 72.93-59.68 132.61-132.61 132.61z"/>
				<path id="&lt;Compound Path&gt;" class="s1" d="m432.96 433.01c-31.49 35.85-73.83 56.75-109.78 52.7-81.34-9.15-122.19-75.82-114.83-141.24 4.91-43.62 31.95-82.36 72.79-105.82 42.15-24.5 80.15-27.99 106.67-25 22.4 2.52 40.53 11.13 50.28 19.98 7.58 6.83 9.74 14.23 8.74 23.07-2.44 16.44-20.8 31.08-30.24 30.02-4.12-0.46-8.05-2.7-12.23-7.94-22.96-24.07-41.94-35.76-57.85-37.55-22.99-2.58-53.21 16.7-60.37 80.35-8.82 78.4 45.5 110.17 70.84 113.02 24.16 2.72 42.58-1.77 65.85-17.66z"/>
				<path id="&lt;Compound Path&gt;" class="s1" d="m485.64 91.76c20.16 0 49.23 3.55 49.82 26.09 0 7.12-1.19 17.8-2.38 26.1-5.92 37.96-23.13 165.09-33.21 239.83h-28.47c-8.3-68.8-25.5-197.13-32.62-238.05-1.78-7.12-4.15-20.76-4.15-27.88 0-20.76 29.65-26.09 51.01-26.09zm0.89 417.98c-26.74 0-48.34-22.13-48.34-49.52 0-27.39 21.6-49.52 48.34-49.52 26.73 0 48.34 22.13 48.34 49.52 0 27.39-21.61 49.52-48.34 49.52z"/>
			</g>
			<g id="&lt;Group&gt;">
				<g id="&lt;Group&gt;">
				</g>
			</g>
		</g>
	</g>
</svg>